<svg viewBox="0 0 15 24" fill="none" xmlns="http://www.w3.org/2000/svg">
<path fill-rule="evenodd" clip-rule="evenodd" d="M0.144182 5.52923L3.61958 0.398104C3.98541 -0.132701 4.79546 -0.132701 5.13516 0.398104L8.63669 5.5545C9.10704 6.23697 8.45377 7.09637 7.64372 6.86888L6.102 6.43918L6.93819 14.4771C6.99045 14.8815 6.65075 15.2607 6.20652 15.2607H2.54821C2.10399 15.2607 1.76429 14.9068 1.81655 14.4771L2.67887 6.4139L1.13715 6.8436C0.353229 7.07109 -0.300041 6.21169 0.144182 5.52923ZM8.92412 17.5608L8.08793 9.49764C8.03567 9.09321 8.37537 8.71407 8.81959 8.71407H12.4779C12.9221 8.71407 13.2618 9.06794 13.2096 9.49764L12.3473 17.5608L13.8628 17.1311C14.6468 16.9036 15.3 17.763 14.8558 18.4455L11.3804 23.6019C11.0146 24.1327 10.2307 24.1327 9.86483 23.6019L6.38943 18.4455C5.91908 17.763 6.57235 16.9036 7.3824 17.1311L8.92412 17.5608Z" fill="#066A9C"/>
</svg>
