<svg viewBox="0 0 227 39" fill="none" xmlns="http://www.w3.org/2000/svg">
<path d="M11.64 30.4C9.18667 30.4 7.05333 29.9333 5.24 29C3.45333 28.0667 1.92 26.7067 0.64 24.92L4 21.08C5.30667 22.92 6.57333 24.1867 7.8 24.88C9.05333 25.5467 10.4667 25.88 12.04 25.88C12.9467 25.88 13.7733 25.7467 14.52 25.48C15.2667 25.2133 15.8533 24.84 16.28 24.36C16.7067 23.8533 16.92 23.2667 16.92 22.6C16.92 22.1467 16.8267 21.7333 16.64 21.36C16.48 20.96 16.2267 20.6133 15.88 20.32C15.56 20 15.1467 19.7067 14.64 19.44C14.16 19.1733 13.5867 18.9467 12.92 18.76C12.28 18.5467 11.5733 18.3733 10.8 18.24C9.30667 17.9467 8.01333 17.56 6.92 17.08C5.85333 16.5733 4.94667 15.96 4.2 15.24C3.48 14.4933 2.93333 13.6667 2.56 12.76C2.21333 11.8267 2.04 10.7733 2.04 9.6C2.04 8.02667 2.48 6.64 3.36 5.44C4.26667 4.21333 5.46667 3.25333 6.96 2.56C8.48 1.86667 10.1467 1.52 11.96 1.52C14.3067 1.52 16.2933 1.94667 17.92 2.8C19.5733 3.65333 20.8667 4.86667 21.8 6.44L18.36 9.8C17.56 8.57333 16.6133 7.64 15.52 7C14.4267 6.36 13.24 6.04 11.96 6.04C11 6.04 10.16 6.18667 9.44 6.48C8.74667 6.74667 8.2 7.13333 7.8 7.64C7.4 8.12 7.2 8.70667 7.2 9.4C7.2 9.90667 7.30667 10.3733 7.52 10.8C7.76 11.2267 8.10667 11.6 8.56 11.92C9.01333 12.24 9.58667 12.52 10.28 12.76C10.9733 13 11.7733 13.2133 12.68 13.4C14.1467 13.72 15.4533 14.12 16.6 14.6C17.7733 15.08 18.76 15.6667 19.56 16.36C20.3867 17.0267 21.0133 17.8 21.44 18.68C21.8667 19.5333 22.08 20.4933 22.08 21.56C22.08 23.3733 21.6533 24.9467 20.8 26.28C19.9467 27.6133 18.7333 28.64 17.16 29.36C15.5867 30.0533 13.7467 30.4 11.64 30.4ZM31.9572 30L24.8772 8.92L29.9172 8.88L34.6372 23.96L33.7172 23.84L38.8772 12.12H41.7972L47.0772 23.88L46.0372 23.96L50.7972 8.92H55.8372L48.6772 30H45.2372L39.7972 17.32L40.5572 17.4L35.4372 30H31.9572ZM70.8731 30V16.52C70.8731 15.3733 70.4865 14.48 69.7131 13.84C68.9665 13.1733 67.9931 12.84 66.7931 12.84C65.6731 12.84 64.6598 13.0667 63.7531 13.52C62.8465 13.9467 62.0065 14.64 61.2331 15.6L58.1931 12.56C59.4465 11.2267 60.8331 10.2133 62.3531 9.52C63.8731 8.82667 65.5131 8.48 67.2731 8.48C68.9531 8.48 70.3931 8.74667 71.5931 9.28C72.8198 9.81333 73.7665 10.6133 74.4331 11.68C75.0998 12.72 75.4331 14 75.4331 15.52V30H70.8731ZM64.8731 30.4C63.5131 30.4 62.2998 30.1333 61.2331 29.6C60.1665 29.0667 59.3131 28.3333 58.6731 27.4C58.0598 26.44 57.7531 25.32 57.7531 24.04C57.7531 22.92 57.9531 21.9467 58.3531 21.12C58.7531 20.2667 59.3398 19.56 60.1131 19C60.9131 18.44 61.8998 18.0267 63.0731 17.76C64.2731 17.4667 65.6465 17.32 67.1931 17.32H73.2331L72.8731 20.84H66.9131C66.1931 20.84 65.5531 20.9067 64.9931 21.04C64.4331 21.1733 63.9531 21.3733 63.5531 21.64C63.1531 21.9067 62.8598 22.2267 62.6731 22.6C62.4865 22.9467 62.3931 23.3733 62.3931 23.88C62.3931 24.4133 62.5265 24.88 62.7931 25.28C63.0598 25.6533 63.4198 25.9467 63.8731 26.16C64.3265 26.3733 64.8598 26.48 65.4731 26.48C66.3531 26.48 67.1798 26.3333 67.9531 26.04C68.7531 25.7467 69.4598 25.3333 70.0731 24.8C70.6865 24.2667 71.1665 23.6667 71.5131 23L72.5131 25.72C71.9531 26.6533 71.2598 27.4667 70.4331 28.16C69.6331 28.8533 68.7531 29.4 67.7931 29.8C66.8598 30.2 65.8865 30.4 64.8731 30.4ZM80.63 38.8V8.92H85.43L85.51 13.68L84.67 13.32C84.83 12.4933 85.2833 11.72 86.03 11C86.7767 10.28 87.6833 9.69333 88.75 9.24C89.8433 8.78667 90.9767 8.56 92.15 8.56C94.0167 8.56 95.67 9.02667 97.11 9.96C98.5767 10.8933 99.7233 12.1867 100.55 13.84C101.403 15.4667 101.83 17.3333 101.83 19.44C101.83 21.5467 101.417 23.4267 100.59 25.08C99.7633 26.7067 98.6167 28 97.15 28.96C95.71 29.8933 94.07 30.36 92.23 30.36C91.0033 30.36 89.8167 30.12 88.67 29.64C87.55 29.16 86.6033 28.5333 85.83 27.76C85.0567 26.9867 84.5633 26.1867 84.35 25.36L85.55 24.76V38.8H80.63ZM91.27 26C92.39 26 93.39 25.72 94.27 25.16C95.15 24.6 95.8433 23.8267 96.35 22.84C96.8567 21.8533 97.11 20.72 97.11 19.44C97.11 18.16 96.8567 17.04 96.35 16.08C95.87 15.0933 95.19 14.32 94.31 13.76C93.43 13.1733 92.4167 12.88 91.27 12.88C90.0967 12.88 89.07 13.16 88.19 13.72C87.31 14.28 86.6167 15.0533 86.11 16.04C85.6033 17.0267 85.35 18.16 85.35 19.44C85.35 20.72 85.6033 21.8533 86.11 22.84C86.6167 23.8267 87.31 24.6 88.19 25.16C89.07 25.72 90.0967 26 91.27 26ZM112.656 30V4.04H104.336V2H123.096V4.04H114.736V30H112.656ZM132.414 30.4C130.334 30.4 128.48 29.9333 126.854 29C125.254 28.04 123.987 26.7467 123.054 25.12C122.147 23.4667 121.694 21.5867 121.694 19.48C121.694 17.4 122.147 15.56 123.054 13.96C123.987 12.3333 125.254 11.0533 126.854 10.12C128.48 9.18667 130.334 8.72 132.414 8.72C134.52 8.72 136.374 9.18667 137.974 10.12C139.574 11.0533 140.827 12.3333 141.734 13.96C142.64 15.56 143.094 17.4 143.094 19.48C143.094 21.5867 142.64 23.4667 141.734 25.12C140.827 26.7467 139.574 28.04 137.974 29C136.374 29.9333 134.52 30.4 132.414 30.4ZM132.414 28.48C134.094 28.48 135.587 28.0933 136.894 27.32C138.2 26.5467 139.214 25.48 139.934 24.12C140.68 22.76 141.054 21.2133 141.054 19.48C141.054 17.7467 140.68 16.2267 139.934 14.92C139.214 13.5867 138.2 12.5467 136.894 11.8C135.587 11.0267 134.094 10.64 132.414 10.64C130.734 10.64 129.24 11.0267 127.934 11.8C126.627 12.5467 125.6 13.5867 124.854 14.92C124.107 16.2533 123.734 17.7733 123.734 19.48C123.734 21.2133 124.107 22.76 124.854 24.12C125.6 25.48 126.627 26.5467 127.934 27.32C129.24 28.0933 130.734 28.48 132.414 28.48ZM149.223 23.04L149.143 20.6L160.863 9H163.703L149.223 23.04ZM147.503 30V0.4H149.543V30H147.503ZM162.023 30L152.623 19.2L154.103 17.84L164.663 30H162.023ZM176.237 30.4C174.184 30.4 172.357 29.9333 170.757 29C169.184 28.0667 167.944 26.7867 167.037 25.16C166.157 23.5333 165.717 21.6667 165.717 19.56C165.717 17.96 165.957 16.5067 166.437 15.2C166.944 13.8667 167.637 12.72 168.517 11.76C169.424 10.7733 170.504 10.0267 171.757 9.52C173.011 8.98667 174.384 8.72 175.877 8.72C177.211 8.72 178.437 8.96 179.557 9.44C180.704 9.89333 181.691 10.5467 182.517 11.4C183.371 12.2533 184.011 13.28 184.437 14.48C184.891 15.68 185.091 17.0133 185.037 18.48L184.997 19.8H167.117L166.797 18.04H183.437L182.957 18.72V17.72C182.957 16.3333 182.624 15.1067 181.957 14.04C181.317 12.9733 180.464 12.1467 179.397 11.56C178.357 10.9467 177.184 10.64 175.877 10.64C174.224 10.64 172.784 11.0133 171.557 11.76C170.331 12.48 169.384 13.5067 168.717 14.84C168.077 16.1467 167.757 17.6933 167.757 19.48C167.757 21.2667 168.117 22.84 168.837 24.2C169.584 25.5333 170.597 26.5867 171.877 27.36C173.184 28.1067 174.704 28.48 176.437 28.48C177.691 28.48 178.851 28.2667 179.917 27.84C181.011 27.4133 182.037 26.7467 182.997 25.84L184.037 27.32C183.397 27.9333 182.664 28.48 181.837 28.96C181.011 29.4133 180.117 29.76 179.157 30C178.224 30.2667 177.251 30.4 176.237 30.4ZM189.3 30V9H191.3L191.34 13.64L190.86 13.92C191.153 12.9867 191.687 12.1333 192.46 11.36C193.26 10.56 194.22 9.92 195.34 9.44C196.46 8.96 197.62 8.72 198.82 8.72C200.393 8.72 201.727 9.01333 202.82 9.6C203.913 10.1867 204.74 11.0933 205.3 12.32C205.887 13.5467 206.18 15.1067 206.18 17V30H204.14V17.08C204.14 15.56 203.913 14.32 203.46 13.36C203.033 12.4 202.38 11.7067 201.5 11.28C200.647 10.8267 199.593 10.6133 198.34 10.64C197.327 10.64 196.393 10.8133 195.54 11.16C194.687 11.48 193.94 11.9067 193.3 12.44C192.687 12.9733 192.207 13.5333 191.86 14.12C191.513 14.7067 191.34 15.2533 191.34 15.76V30H190.34C190.207 30 190.047 30 189.86 30C189.673 30 189.487 30 189.3 30ZM218.803 30.4C217.043 30.4 215.443 30.08 214.003 29.44C212.563 28.7733 211.429 27.88 210.603 26.76L212.043 25.56C212.816 26.4933 213.776 27.24 214.923 27.8C216.096 28.36 217.443 28.64 218.963 28.64C219.843 28.64 220.603 28.5333 221.243 28.32C221.909 28.1067 222.456 27.8133 222.883 27.44C223.309 27.0667 223.616 26.6267 223.803 26.12C224.016 25.6133 224.123 25.0933 224.123 24.56C224.123 23.4933 223.669 22.64 222.763 22C222.309 21.6533 221.723 21.3467 221.003 21.08C220.283 20.8133 219.429 20.56 218.443 20.32C217.109 20 215.963 19.6267 215.003 19.2C214.069 18.7733 213.309 18.28 212.723 17.72C212.269 17.2667 211.923 16.7733 211.683 16.24C211.443 15.68 211.323 15.0667 211.323 14.4C211.323 13.28 211.616 12.2933 212.203 11.44C212.816 10.5867 213.656 9.92 214.723 9.44C215.816 8.96 217.069 8.72 218.483 8.72C219.443 8.72 220.376 8.85333 221.283 9.12C222.189 9.38667 223.043 9.77333 223.843 10.28C224.643 10.76 225.336 11.3733 225.923 12.12L224.683 13.48C224.123 12.8667 223.509 12.3333 222.843 11.88C222.203 11.4267 221.509 11.08 220.763 10.84C220.043 10.6 219.309 10.48 218.563 10.48C217.736 10.48 216.989 10.5733 216.323 10.76C215.683 10.9467 215.136 11.2133 214.683 11.56C214.229 11.88 213.883 12.28 213.643 12.76C213.429 13.2133 213.323 13.7333 213.323 14.32C213.349 14.72 213.443 15.12 213.603 15.52C213.789 15.92 214.056 16.2667 214.403 16.56C214.829 16.9333 215.429 17.28 216.203 17.6C217.003 17.8933 217.936 18.16 219.003 18.4C220.256 18.6933 221.323 19.0267 222.203 19.4C223.083 19.7467 223.803 20.1733 224.363 20.68C224.949 21.16 225.376 21.7067 225.643 22.32C225.909 22.9333 226.043 23.6533 226.043 24.48C226.043 25.68 225.736 26.72 225.123 27.6C224.509 28.48 223.669 29.1733 222.603 29.68C221.536 30.16 220.269 30.4 218.803 30.4Z" fill="#066A9C"/>
</svg>
